<svg viewBox="0 0 333 38" fill="none" xmlns="http://www.w3.org/2000/svg">
<path d="M0.56394 4.37281C-0.727721 7.56994 0.257546 11.2349 2.92498 12.3146C5.59842 13.3943 8.86061 11.4329 10.1523 8.24175C11.4439 5.05063 10.4527 1.37963 7.78523 0.305929C5.10578 -0.779773 1.84959 1.18169 0.56394 4.37281Z" fill="#7AB800"/>
<path d="M29.0166 22.8357C31.69 23.9154 34.9522 21.954 36.2439 18.7629C37.5355 15.5717 36.5382 11.9007 33.8768 10.827C31.1974 9.74733 27.9412 11.7088 26.6555 14.8999C25.3639 18.097 26.3491 21.768 29.0226 22.8417" fill="#7AB800"/>
<path d="M0.678094 23.2556C-1.4907 28.6242 1.72945 34.5985 7.70113 37.0039C13.6668 39.4092 20.1491 37.3518 22.3239 31.9832C24.0902 27.6164 22.39 22.6318 18.491 19.6146C17.5899 18.9188 16.5685 18.319 15.4451 17.8691C14.3216 17.4192 13.1682 17.1373 12.0387 17.0113C7.14241 16.4775 2.44437 18.8828 0.684102 23.2496" fill="#7AB800"/>
<path d="M26.5113 4.30083C25.8204 2.62129 24.5648 1.26566 22.8646 0.58185C21.7232 0.119977 20.5156 0.0300013 19.3441 0.227947C19.236 0.245942 19.1218 0.269936 19.0137 0.287931C18.9596 0.299927 18.9176 0.311924 18.8695 0.323921C17.0071 0.749804 15.2528 1.93748 14.0273 3.683C13.6308 4.25284 13.2763 4.86468 13.006 5.53649C12.0928 7.80387 12.1469 10.1912 12.9519 12.1407C13.6488 13.8202 14.8984 15.1758 16.5986 15.8597C17.74 16.3215 18.9536 16.4175 20.1311 16.2136C20.2333 16.1956 20.3354 16.1776 20.4375 16.1596C20.4916 16.1476 20.5517 16.1356 20.6057 16.1236C22.4681 15.6977 24.2164 14.51 25.436 12.7645C25.8385 12.1947 26.1809 11.5828 26.4633 10.911C27.3764 8.64364 27.3224 6.26229 26.5113 4.30683" fill="#7AB800"/>
<path d="M56.0934 37.0518H60.6652C61.5424 37.0518 62.2453 36.344 62.2453 35.4743V6.64619H69.2203C70.0974 6.64619 70.8063 5.93838 70.8063 5.06262V1.58958C70.8063 0.713818 70.0974 0.00601196 69.2203 0.00601196H47.8628C46.9856 0.00601196 46.2767 0.719816 46.2767 1.58958V5.06862C46.2767 5.93838 46.9856 6.65219 47.8628 6.65219H54.5073V35.4683C54.5073 36.344 55.2162 37.0458 56.0934 37.0458" fill="#5D4F4A"/>
<path d="M110.95 22.05C110.95 10.0712 103.128 8.27774 98.4659 8.27774C96.8618 8.27774 93.7558 8.58366 90.9562 10.6351C87.4718 13.1964 85.7055 17.4732 85.7055 23.3576C85.7055 33.0689 90.5477 37.9996 100.1 37.9996C102.479 37.9996 106.168 37.3518 108.301 36.1521C108.979 35.7742 109.28 34.9584 109.009 34.2326L108.006 31.5034C107.772 30.8615 107.165 30.4657 106.522 30.4657C106.336 30.4657 106.156 30.4956 105.976 30.5616C103.933 31.3054 101.956 31.6893 100.1 31.6893C96.189 31.6893 93.9481 29.7279 93.4434 25.8649H107.345C110.505 25.8649 110.944 24.0354 110.944 22.056L110.95 22.05ZM93.6056 20.2625C93.876 17.4492 95.0175 14.1081 98.9465 14.1081C102.077 14.1081 103.524 15.9496 103.795 20.2625H93.5996H93.6056Z" fill="#5D4F4A"/>
<path d="M134.506 37.0518H139.024C139.901 37.0518 140.61 36.344 140.61 35.4743V18.6789C140.61 9.35743 134.608 8.28372 130.085 8.28372C125.074 8.28372 122.244 10.893 121.253 11.9727L121.193 11.043C121.019 10.3292 120.388 9.8193 119.649 9.8193H116.519C116.099 9.8193 115.696 9.98726 115.402 10.2812C115.101 10.5751 114.933 10.977 114.933 11.4029V35.4683C114.933 36.344 115.642 37.0458 116.519 37.0458H120.983C121.86 37.0458 122.563 36.338 122.563 35.4683V19.0028C122.563 18.4929 122.545 18.037 122.509 17.6412C124.155 15.4817 126.24 14.432 128.889 14.432C130.397 14.432 132.92 14.9839 132.92 18.6789V35.4743C132.92 36.35 133.635 37.0518 134.506 37.0518Z" fill="#5D4F4A"/>
<path d="M224.857 37.0518H229.38C230.251 37.0518 230.96 36.344 230.96 35.4743V18.6789C230.96 9.35743 224.953 8.28372 220.441 8.28372C215.424 8.28372 212.595 10.893 211.609 11.9967L211.543 11.043C211.375 10.3292 210.738 9.8193 210.005 9.8193H206.875C206.455 9.8193 206.052 9.98726 205.752 10.2812C205.452 10.5751 205.283 10.977 205.283 11.4029V35.4683C205.283 36.344 205.998 37.0458 206.869 37.0458H211.333C212.204 37.0458 212.919 36.338 212.919 35.4683V19.0028C212.919 18.4929 212.895 18.037 212.859 17.6412C214.511 15.4817 216.596 14.432 219.245 14.432C220.753 14.432 223.276 14.9839 223.276 18.6789V35.4743C223.276 36.35 223.985 37.0518 224.857 37.0518Z" fill="#7AB800"/>
<path d="M148.763 11.5109C145.909 14.1441 144.467 18.0731 144.467 23.1956C144.467 36.0741 152.529 37.9996 157.33 37.9996C161.078 37.9996 163.548 36.392 164.959 35.0424L165.008 35.6182C165.086 36.434 165.771 37.0518 166.588 37.0518H170.589C171.009 37.0518 171.418 36.8899 171.712 36.59C172.007 36.2961 172.175 35.8882 172.175 35.4683L172.157 1.58958C172.157 0.713818 171.448 0.00601196 170.571 0.00601196H166.107C165.23 0.00601196 164.521 0.719816 164.521 1.58958V10.6231C162.604 9.09352 160.159 8.28374 157.432 8.28374C155.503 8.28374 151.803 8.70363 148.757 11.5109H148.763ZM164.521 17.1493V28.3602C163.313 30.5136 160.916 31.8993 158.417 31.8993C152.83 31.8993 152.001 26.4468 152.001 23.1896C152.001 16.6454 155.455 14.3181 158.687 14.3181C161.253 14.3181 163.217 15.2718 164.521 17.1493Z" fill="#5D4F4A"/>
<path d="M280.734 37.0518H285.252C286.123 37.0518 286.838 36.344 286.838 35.4743V18.349C286.838 8.33173 279.983 8.33173 277.731 8.33173C274.366 8.33173 271.801 9.56739 269.884 12.0927C268.431 9.60338 265.811 8.33173 262.086 8.33173C258.824 8.33173 256.133 9.63337 254.312 12.0867L254.222 11.049C254.06 10.3292 253.417 9.81932 252.684 9.81932H249.548C249.128 9.81932 248.725 9.98727 248.425 10.2812C248.13 10.5751 247.962 10.977 247.962 11.4029V35.4683C247.962 36.344 248.677 37.0458 249.548 37.0458H254.012C254.883 37.0458 255.592 36.338 255.592 35.4683V19.0568C255.592 18.5469 255.58 18.085 255.544 17.6952C256.734 15.7097 258.44 14.702 260.609 14.702C262.555 14.702 263.498 15.9676 263.498 18.5649V35.4683C263.498 36.344 264.207 37.0458 265.084 37.0458H269.656C270.533 37.0458 271.242 36.338 271.242 35.4683V19.0568C271.242 18.5469 271.224 18.085 271.188 17.6952C271.957 16.3335 273.453 14.702 276.205 14.702C278.187 14.702 279.148 15.9676 279.148 18.5649V35.4683C279.148 36.344 279.857 37.0458 280.734 37.0458" fill="#7AB800"/>
<path d="M331.686 32.1752C331.446 31.5753 330.857 31.1855 330.22 31.1855C330.154 31.1855 330.088 31.1915 330.028 31.2034C329.836 31.2274 329.637 31.2454 329.499 31.2454C328.075 31.2454 327.258 29.8958 327.258 27.5445V1.58958C327.258 0.719816 326.549 0.00601196 325.672 0.00601196H321.209C320.331 0.00601196 319.629 0.719816 319.629 1.58958V28.0903C319.629 36.0561 324.549 37.7237 328.682 37.7237C330.01 37.7237 331.133 37.5437 332.022 37.1838C332.827 36.8539 333.212 35.9302 332.882 35.1264L331.68 32.1812L331.686 32.1752Z" fill="#7AB800"/>
<path d="M79.6016 37.0519C80.4728 37.0519 81.1877 36.344 81.1877 35.4743V11.3729C81.1877 10.4971 80.4728 9.78934 79.6016 9.78934H75.0838C74.2127 9.78934 73.5038 10.4971 73.5038 11.3729V35.4683C73.5038 36.344 74.2127 37.0459 75.0838 37.0459H79.6016V37.0519Z" fill="#5D4F4A"/>
<path d="M237.22 9.78934C236.343 9.78934 235.634 10.4971 235.634 11.3729V35.4683C235.634 36.338 236.343 37.0459 237.22 37.0459H241.738C242.615 37.0459 243.324 36.338 243.324 35.4683V11.3729C243.324 10.4971 242.615 9.78934 241.738 9.78934H237.22Z" fill="#7AB800"/>
<path d="M190.853 19.7106C178.146 19.7106 176.242 25.649 176.242 29.182C176.242 34.5385 180.592 37.9996 187.308 37.9996C189.339 37.9996 191.436 37.3038 193.526 35.9302C193.73 36.596 194.343 37.0519 195.046 37.0519H198.921C199.792 37.0519 200.507 36.344 200.507 35.4683V17.0413C200.507 9.41743 193.304 8.27774 189.002 8.27774C185.716 8.27774 182.694 8.85358 180.718 9.85531C180.279 10.0772 179.967 10.4911 179.877 10.971C179.781 11.4509 179.919 11.9487 180.243 12.3086L182.544 14.8999C182.85 15.2478 183.283 15.4278 183.728 15.4278C183.908 15.4278 184.094 15.3978 184.268 15.3318C185.746 14.792 187.302 14.534 189.002 14.534C193.04 14.534 193.04 16.4415 193.04 17.2573V19.7586C191.778 19.7046 191.249 19.7046 190.853 19.7046V19.7106ZM193.04 30.6876C191.796 31.3654 190.234 32.0612 188.077 32.0612C185.326 32.0612 183.986 30.9755 183.986 28.7441C183.986 26.0749 186.311 24.8812 191.514 24.8812C191.898 24.8812 192.331 24.8812 193.046 24.9352V30.6936L193.04 30.6876Z" fill="#7AB800"/>
<path d="M305.39 19.7106C292.678 19.7106 290.779 25.649 290.779 29.182C290.779 34.5385 295.123 37.9996 301.846 37.9996C303.876 37.9996 305.967 37.3038 308.058 35.9302C308.262 36.596 308.875 37.0519 309.572 37.0519H313.453C314.324 37.0519 315.033 36.344 315.033 35.4683V17.0413C315.033 9.41743 307.829 8.27774 303.528 8.27774C300.242 8.27774 297.22 8.85358 295.243 9.85531C294.805 10.0772 294.492 10.4911 294.402 10.971C294.312 11.4509 294.45 11.9487 294.775 12.3086L297.069 14.8999C297.376 15.2478 297.808 15.4278 298.253 15.4278C298.433 15.4278 298.613 15.3978 298.794 15.3318C300.284 14.792 301.828 14.534 303.528 14.534C307.565 14.534 307.565 16.4415 307.565 17.2573V19.7586C306.309 19.7046 305.775 19.7046 305.384 19.7046L305.39 19.7106ZM307.565 30.6876C306.321 31.3654 304.759 32.0612 302.603 32.0612C299.845 32.0612 298.511 30.9755 298.511 28.7441C298.511 26.0749 300.83 24.8812 306.033 24.8812C306.417 24.8812 306.85 24.8812 307.559 24.9352V30.6936L307.565 30.6876Z" fill="#7AB800"/>
<path d="M73.4617 3.70698C73.4617 5.77042 75.204 7.45596 77.3427 7.45596C79.4815 7.45596 81.2237 5.77642 81.2237 3.70698C81.2237 1.63755 79.4454 0 77.3427 0C75.24 0 73.4617 1.66754 73.4617 3.70698Z" fill="#5D4F4A"/>
<path d="M239.479 0.0899658C237.341 0.0899658 235.598 1.75751 235.598 3.79695C235.598 5.83639 237.341 7.54592 239.479 7.54592C241.618 7.54592 243.36 5.86038 243.36 3.79695C243.36 1.73352 241.582 0.0899658 239.479 0.0899658Z" fill="#7AB800"/>
</svg>
